<mxfile host="app.diagrams.net" agent="Mozilla/5.0 (Windows NT 10.0; Win64; x64) AppleWebKit/537.36 (KHTML, like Gecko) Chrome/138.0.0.0 Safari/537.36" version="28.0.6">
  <diagram name="Halaman-1" id="DMY7N_zEYK0uOIMBZ_gM">
    <mxGraphModel dx="1042" dy="562" grid="1" gridSize="10" guides="1" tooltips="1" connect="1" arrows="1" fold="1" page="1" pageScale="1" pageWidth="827" pageHeight="1169" math="0" shadow="0">
      <root>
        <mxCell id="0" />
        <mxCell id="1" parent="0" />
        <mxCell id="EYh4BBkZvYkQw-OT5A3f-1" value="Admin" style="shape=umlActor;verticalLabelPosition=bottom;verticalAlign=top;html=1;outlineConnect=0;" parent="1" vertex="1">
          <mxGeometry x="100" y="360" width="30" height="60" as="geometry" />
        </mxCell>
        <mxCell id="EYh4BBkZvYkQw-OT5A3f-4" value="Login" style="ellipse;whiteSpace=wrap;html=1;" parent="1" vertex="1">
          <mxGeometry x="420" y="350" width="100" height="40" as="geometry" />
        </mxCell>
        <mxCell id="EYh4BBkZvYkQw-OT5A3f-9" value="Verifikasi Akun" style="ellipse;whiteSpace=wrap;html=1;" parent="1" vertex="1">
          <mxGeometry x="480" y="250" width="100" height="40" as="geometry" />
        </mxCell>
        <mxCell id="EYh4BBkZvYkQw-OT5A3f-19" value="&lt;font style=&quot;font-size: 10px;&quot;&gt;Mengelola Data Alternatif&lt;/font&gt;" style="ellipse;whiteSpace=wrap;html=1;" parent="1" vertex="1">
          <mxGeometry x="225" y="180" width="100" height="40" as="geometry" />
        </mxCell>
        <mxCell id="EYh4BBkZvYkQw-OT5A3f-21" value="&lt;font style=&quot;font-size: 10px;&quot;&gt;Mengelola Data Kriteria&lt;/font&gt;" style="ellipse;whiteSpace=wrap;html=1;" parent="1" vertex="1">
          <mxGeometry x="260" y="250" width="100" height="40" as="geometry" />
        </mxCell>
        <mxCell id="EYh4BBkZvYkQw-OT5A3f-23" value="&lt;font style=&quot;font-size: 10px;&quot;&gt;Mengelola Data Subkriteria&lt;/font&gt;" style="ellipse;whiteSpace=wrap;html=1;" parent="1" vertex="1">
          <mxGeometry x="290" y="310" width="100" height="40" as="geometry" />
        </mxCell>
        <mxCell id="EYh4BBkZvYkQw-OT5A3f-25" value="&lt;font style=&quot;font-size: 10px;&quot;&gt;Mengelola Penilaian&lt;/font&gt;" style="ellipse;whiteSpace=wrap;html=1;" parent="1" vertex="1">
          <mxGeometry x="420" y="430" width="100" height="40" as="geometry" />
        </mxCell>
        <mxCell id="EYh4BBkZvYkQw-OT5A3f-27" value="&lt;span style=&quot;font-size: 10px;&quot;&gt;Proses Perhitungan&lt;/span&gt;" style="ellipse;whiteSpace=wrap;html=1;" parent="1" vertex="1">
          <mxGeometry x="340" y="490" width="100" height="40" as="geometry" />
        </mxCell>
        <mxCell id="EYh4BBkZvYkQw-OT5A3f-30" value="Tahun" style="ellipse;whiteSpace=wrap;html=1;" parent="1" vertex="1">
          <mxGeometry x="590" y="435" width="70" height="30" as="geometry" />
        </mxCell>
        <mxCell id="EYh4BBkZvYkQw-OT5A3f-33" value="Tahun" style="ellipse;whiteSpace=wrap;html=1;" parent="1" vertex="1">
          <mxGeometry x="500" y="500" width="70" height="30" as="geometry" />
        </mxCell>
        <mxCell id="EYh4BBkZvYkQw-OT5A3f-35" value="&lt;span style=&quot;font-size: 10px;&quot;&gt;Hasil Perhitungan&lt;/span&gt;" style="ellipse;whiteSpace=wrap;html=1;" parent="1" vertex="1">
          <mxGeometry x="200" y="490" width="100" height="40" as="geometry" />
        </mxCell>
        <mxCell id="EYh4BBkZvYkQw-OT5A3f-37" value="&lt;span style=&quot;font-size: 10px;&quot;&gt;Laporan seleksi&lt;/span&gt;" style="ellipse;whiteSpace=wrap;html=1;" parent="1" vertex="1">
          <mxGeometry x="180" y="585" width="100" height="40" as="geometry" />
        </mxCell>
        <mxCell id="EYh4BBkZvYkQw-OT5A3f-40" value="&lt;font style=&quot;font-size: 10px;&quot;&gt;Cetak Data Hasil Seleksi&lt;/font&gt;" style="ellipse;whiteSpace=wrap;html=1;" parent="1" vertex="1">
          <mxGeometry x="390" y="610" width="104" height="45" as="geometry" />
        </mxCell>
        <mxCell id="EYh4BBkZvYkQw-OT5A3f-41" value="Kepala Sekolah" style="shape=umlActor;verticalLabelPosition=bottom;verticalAlign=top;html=1;outlineConnect=0;" parent="1" vertex="1">
          <mxGeometry x="730" y="350" width="30" height="60" as="geometry" />
        </mxCell>
        <mxCell id="EYh4BBkZvYkQw-OT5A3f-47" value="&lt;span style=&quot;font-size: 10px;&quot;&gt;Seleksi&lt;/span&gt;" style="ellipse;whiteSpace=wrap;html=1;" parent="1" vertex="1">
          <mxGeometry x="550" y="530" width="100" height="40" as="geometry" />
        </mxCell>
        <mxCell id="FMbTlA1_RN2vEP0Rp1aa-1" value="Login Gagal" style="ellipse;whiteSpace=wrap;html=1;" vertex="1" parent="1">
          <mxGeometry x="600" y="220" width="90" height="40" as="geometry" />
        </mxCell>
        <mxCell id="FMbTlA1_RN2vEP0Rp1aa-3" value="" style="endArrow=classic;html=1;rounded=0;exitX=0.5;exitY=0.5;exitDx=0;exitDy=0;exitPerimeter=0;entryX=0.024;entryY=0.715;entryDx=0;entryDy=0;entryPerimeter=0;" edge="1" parent="1" source="EYh4BBkZvYkQw-OT5A3f-1" target="EYh4BBkZvYkQw-OT5A3f-4">
          <mxGeometry width="50" height="50" relative="1" as="geometry">
            <mxPoint x="180" y="340" as="sourcePoint" />
            <mxPoint x="230" y="290" as="targetPoint" />
          </mxGeometry>
        </mxCell>
        <mxCell id="FMbTlA1_RN2vEP0Rp1aa-7" value="" style="endArrow=classic;html=1;rounded=0;entryX=0.276;entryY=0.935;entryDx=0;entryDy=0;entryPerimeter=0;exitX=0.5;exitY=0.5;exitDx=0;exitDy=0;exitPerimeter=0;" edge="1" parent="1" source="EYh4BBkZvYkQw-OT5A3f-1" target="EYh4BBkZvYkQw-OT5A3f-19">
          <mxGeometry width="50" height="50" relative="1" as="geometry">
            <mxPoint x="190" y="370" as="sourcePoint" />
            <mxPoint x="240" y="320" as="targetPoint" />
          </mxGeometry>
        </mxCell>
        <mxCell id="FMbTlA1_RN2vEP0Rp1aa-8" value="" style="endArrow=classic;html=1;rounded=0;entryX=0.012;entryY=0.725;entryDx=0;entryDy=0;entryPerimeter=0;exitX=0.5;exitY=0.5;exitDx=0;exitDy=0;exitPerimeter=0;" edge="1" parent="1" source="EYh4BBkZvYkQw-OT5A3f-1" target="EYh4BBkZvYkQw-OT5A3f-21">
          <mxGeometry width="50" height="50" relative="1" as="geometry">
            <mxPoint x="170" y="388" as="sourcePoint" />
            <mxPoint x="264" y="310" as="targetPoint" />
          </mxGeometry>
        </mxCell>
        <mxCell id="FMbTlA1_RN2vEP0Rp1aa-9" value="" style="endArrow=classic;html=1;rounded=0;exitX=0.5;exitY=0.5;exitDx=0;exitDy=0;exitPerimeter=0;entryX=0;entryY=0.695;entryDx=0;entryDy=0;entryPerimeter=0;" edge="1" parent="1" source="EYh4BBkZvYkQw-OT5A3f-1" target="EYh4BBkZvYkQw-OT5A3f-23">
          <mxGeometry width="50" height="50" relative="1" as="geometry">
            <mxPoint x="260" y="468" as="sourcePoint" />
            <mxPoint x="310" y="390" as="targetPoint" />
          </mxGeometry>
        </mxCell>
        <mxCell id="FMbTlA1_RN2vEP0Rp1aa-10" value="" style="endArrow=classic;html=1;rounded=0;entryX=0.018;entryY=0.255;entryDx=0;entryDy=0;entryPerimeter=0;exitX=0.5;exitY=0.5;exitDx=0;exitDy=0;exitPerimeter=0;" edge="1" parent="1" source="EYh4BBkZvYkQw-OT5A3f-1" target="EYh4BBkZvYkQw-OT5A3f-25">
          <mxGeometry width="50" height="50" relative="1" as="geometry">
            <mxPoint x="240" y="488" as="sourcePoint" />
            <mxPoint x="334" y="410" as="targetPoint" />
          </mxGeometry>
        </mxCell>
        <mxCell id="FMbTlA1_RN2vEP0Rp1aa-11" value="" style="endArrow=classic;html=1;rounded=0;entryX=0.032;entryY=0.305;entryDx=0;entryDy=0;entryPerimeter=0;exitX=0.5;exitY=0.5;exitDx=0;exitDy=0;exitPerimeter=0;" edge="1" parent="1" source="EYh4BBkZvYkQw-OT5A3f-1" target="EYh4BBkZvYkQw-OT5A3f-27">
          <mxGeometry width="50" height="50" relative="1" as="geometry">
            <mxPoint x="240" y="518" as="sourcePoint" />
            <mxPoint x="334" y="440" as="targetPoint" />
          </mxGeometry>
        </mxCell>
        <mxCell id="FMbTlA1_RN2vEP0Rp1aa-12" value="" style="endArrow=classic;html=1;rounded=0;entryX=0;entryY=0;entryDx=0;entryDy=0;exitX=0.5;exitY=0.5;exitDx=0;exitDy=0;exitPerimeter=0;" edge="1" parent="1" source="EYh4BBkZvYkQw-OT5A3f-1" target="EYh4BBkZvYkQw-OT5A3f-35">
          <mxGeometry width="50" height="50" relative="1" as="geometry">
            <mxPoint x="220" y="548" as="sourcePoint" />
            <mxPoint x="314" y="470" as="targetPoint" />
          </mxGeometry>
        </mxCell>
        <mxCell id="FMbTlA1_RN2vEP0Rp1aa-13" value="" style="endArrow=classic;html=1;rounded=0;exitX=0.5;exitY=0.5;exitDx=0;exitDy=0;exitPerimeter=0;entryX=0.932;entryY=0.685;entryDx=0;entryDy=0;entryPerimeter=0;" edge="1" parent="1" source="EYh4BBkZvYkQw-OT5A3f-41" target="EYh4BBkZvYkQw-OT5A3f-4">
          <mxGeometry width="50" height="50" relative="1" as="geometry">
            <mxPoint x="690" y="310" as="sourcePoint" />
            <mxPoint x="700" y="220" as="targetPoint" />
            <Array as="points" />
          </mxGeometry>
        </mxCell>
        <mxCell id="FMbTlA1_RN2vEP0Rp1aa-17" value="" style="endArrow=classic;html=1;rounded=0;entryX=0.268;entryY=0.025;entryDx=0;entryDy=0;exitX=0.5;exitY=0.5;exitDx=0;exitDy=0;exitPerimeter=0;entryPerimeter=0;" edge="1" parent="1" source="EYh4BBkZvYkQw-OT5A3f-1" target="EYh4BBkZvYkQw-OT5A3f-37">
          <mxGeometry width="50" height="50" relative="1" as="geometry">
            <mxPoint x="150" y="449" as="sourcePoint" />
            <mxPoint x="250" y="585" as="targetPoint" />
          </mxGeometry>
        </mxCell>
        <mxCell id="FMbTlA1_RN2vEP0Rp1aa-18" value="" style="endArrow=classic;html=1;rounded=0;entryX=1;entryY=0;entryDx=0;entryDy=0;" edge="1" parent="1" target="EYh4BBkZvYkQw-OT5A3f-47">
          <mxGeometry width="50" height="50" relative="1" as="geometry">
            <mxPoint x="730" y="440" as="sourcePoint" />
            <mxPoint x="650" y="550" as="targetPoint" />
            <Array as="points">
              <mxPoint x="670" y="510" />
            </Array>
          </mxGeometry>
        </mxCell>
        <mxCell id="FMbTlA1_RN2vEP0Rp1aa-19" value="" style="endArrow=classic;html=1;rounded=0;entryX=0.972;entryY=0.245;entryDx=0;entryDy=0;entryPerimeter=0;" edge="1" parent="1" target="EYh4BBkZvYkQw-OT5A3f-37">
          <mxGeometry width="50" height="50" relative="1" as="geometry">
            <mxPoint x="740" y="440" as="sourcePoint" />
            <mxPoint x="700" y="600" as="targetPoint" />
            <Array as="points">
              <mxPoint x="670" y="600" />
            </Array>
          </mxGeometry>
        </mxCell>
        <mxCell id="FMbTlA1_RN2vEP0Rp1aa-22" value="&amp;lt;&amp;lt;include&amp;gt;&amp;gt;" style="edgeStyle=none;html=1;endArrow=open;verticalAlign=bottom;dashed=1;labelBackgroundColor=none;rounded=0;entryX=0.628;entryY=-0.085;entryDx=0;entryDy=0;exitX=0.978;exitY=0.725;exitDx=0;exitDy=0;exitPerimeter=0;entryPerimeter=0;" edge="1" parent="1" source="EYh4BBkZvYkQw-OT5A3f-19" target="EYh4BBkZvYkQw-OT5A3f-4">
          <mxGeometry x="-0.202" y="5" width="160" relative="1" as="geometry">
            <mxPoint x="354" y="230" as="sourcePoint" />
            <mxPoint x="473" y="240" as="targetPoint" />
            <mxPoint as="offset" />
          </mxGeometry>
        </mxCell>
        <mxCell id="FMbTlA1_RN2vEP0Rp1aa-23" value="&amp;lt;&amp;lt;extend&amp;gt;&amp;gt;" style="edgeStyle=none;html=1;startArrow=open;endArrow=none;startSize=12;verticalAlign=bottom;dashed=1;labelBackgroundColor=none;rounded=0;entryX=0;entryY=0.5;entryDx=0;entryDy=0;exitX=0.64;exitY=-0.025;exitDx=0;exitDy=0;exitPerimeter=0;" edge="1" parent="1" source="EYh4BBkZvYkQw-OT5A3f-9" target="FMbTlA1_RN2vEP0Rp1aa-1">
          <mxGeometry width="160" relative="1" as="geometry">
            <mxPoint x="490" y="140" as="sourcePoint" />
            <mxPoint x="650" y="140" as="targetPoint" />
          </mxGeometry>
        </mxCell>
        <mxCell id="FMbTlA1_RN2vEP0Rp1aa-28" value="&amp;lt;&amp;lt;include&amp;gt;&amp;gt;" style="edgeStyle=none;html=1;endArrow=open;verticalAlign=bottom;dashed=1;labelBackgroundColor=none;rounded=0;entryX=0.348;entryY=0.005;entryDx=0;entryDy=0;exitX=1;exitY=0;exitDx=0;exitDy=0;entryPerimeter=0;" edge="1" parent="1" source="EYh4BBkZvYkQw-OT5A3f-23" target="EYh4BBkZvYkQw-OT5A3f-4">
          <mxGeometry x="0.2682" y="-20" width="160" relative="1" as="geometry">
            <mxPoint x="399.5" y="310" as="sourcePoint" />
            <mxPoint x="518.5" y="320" as="targetPoint" />
            <mxPoint y="-1" as="offset" />
          </mxGeometry>
        </mxCell>
        <mxCell id="FMbTlA1_RN2vEP0Rp1aa-29" value="&amp;lt;&amp;lt;include&amp;gt;&amp;gt;" style="edgeStyle=none;html=1;endArrow=open;verticalAlign=bottom;dashed=1;labelBackgroundColor=none;rounded=0;entryX=0.5;entryY=0;entryDx=0;entryDy=0;exitX=0.94;exitY=0.775;exitDx=0;exitDy=0;exitPerimeter=0;" edge="1" parent="1" source="EYh4BBkZvYkQw-OT5A3f-21" target="EYh4BBkZvYkQw-OT5A3f-4">
          <mxGeometry x="-0.2375" y="4" width="160" relative="1" as="geometry">
            <mxPoint x="360" y="260" as="sourcePoint" />
            <mxPoint x="479" y="270" as="targetPoint" />
            <mxPoint as="offset" />
          </mxGeometry>
        </mxCell>
        <mxCell id="FMbTlA1_RN2vEP0Rp1aa-30" value="&amp;lt;&amp;lt;extend&amp;gt;&amp;gt;" style="edgeStyle=none;html=1;startArrow=open;endArrow=none;startSize=12;verticalAlign=bottom;dashed=1;labelBackgroundColor=none;rounded=0;exitX=1;exitY=0.5;exitDx=0;exitDy=0;entryX=0;entryY=0.5;entryDx=0;entryDy=0;" edge="1" parent="1" source="EYh4BBkZvYkQw-OT5A3f-25" target="EYh4BBkZvYkQw-OT5A3f-30">
          <mxGeometry width="160" relative="1" as="geometry">
            <mxPoint x="429" y="449.5" as="sourcePoint" />
            <mxPoint x="500" y="450" as="targetPoint" />
          </mxGeometry>
        </mxCell>
        <mxCell id="FMbTlA1_RN2vEP0Rp1aa-31" value="&amp;lt;&amp;lt;extend&amp;gt;&amp;gt;" style="edgeStyle=none;html=1;startArrow=open;endArrow=none;startSize=12;verticalAlign=bottom;dashed=1;labelBackgroundColor=none;rounded=0;exitX=0.98;exitY=0.755;exitDx=0;exitDy=0;exitPerimeter=0;" edge="1" parent="1" source="EYh4BBkZvYkQw-OT5A3f-27" target="EYh4BBkZvYkQw-OT5A3f-33">
          <mxGeometry x="0.4435" y="5" width="160" relative="1" as="geometry">
            <mxPoint x="430" y="509" as="sourcePoint" />
            <mxPoint x="535" y="509" as="targetPoint" />
            <mxPoint as="offset" />
          </mxGeometry>
        </mxCell>
        <mxCell id="FMbTlA1_RN2vEP0Rp1aa-33" value="&amp;lt;&amp;lt;include&amp;gt;&amp;gt;" style="edgeStyle=none;html=1;endArrow=open;verticalAlign=bottom;dashed=1;labelBackgroundColor=none;rounded=0;entryX=0;entryY=1;entryDx=0;entryDy=0;exitX=0.265;exitY=0;exitDx=0;exitDy=0;exitPerimeter=0;" edge="1" parent="1" source="EYh4BBkZvYkQw-OT5A3f-27" target="EYh4BBkZvYkQw-OT5A3f-4">
          <mxGeometry x="-0.8396" y="4" width="160" relative="1" as="geometry">
            <mxPoint x="377" y="490" as="sourcePoint" />
            <mxPoint x="450" y="449" as="targetPoint" />
            <mxPoint as="offset" />
          </mxGeometry>
        </mxCell>
        <mxCell id="FMbTlA1_RN2vEP0Rp1aa-35" value="&amp;lt;&amp;lt;include&amp;gt;&amp;gt;" style="edgeStyle=none;html=1;endArrow=open;verticalAlign=bottom;dashed=1;labelBackgroundColor=none;rounded=0;entryX=0.1;entryY=0.5;entryDx=0;entryDy=0;exitX=0.5;exitY=0;exitDx=0;exitDy=0;entryPerimeter=0;" edge="1" parent="1" source="EYh4BBkZvYkQw-OT5A3f-35" target="EYh4BBkZvYkQw-OT5A3f-4">
          <mxGeometry x="-0.8231" y="10" width="160" relative="1" as="geometry">
            <mxPoint x="247" y="501" as="sourcePoint" />
            <mxPoint x="320" y="460" as="targetPoint" />
            <mxPoint as="offset" />
          </mxGeometry>
        </mxCell>
        <mxCell id="FMbTlA1_RN2vEP0Rp1aa-37" value="&amp;lt;&amp;lt;include&amp;gt;&amp;gt;" style="edgeStyle=none;html=1;endArrow=open;verticalAlign=bottom;dashed=1;labelBackgroundColor=none;rounded=0;entryX=0.5;entryY=1;entryDx=0;entryDy=0;exitX=0.5;exitY=0;exitDx=0;exitDy=0;" edge="1" parent="1" source="EYh4BBkZvYkQw-OT5A3f-25" target="EYh4BBkZvYkQw-OT5A3f-4">
          <mxGeometry x="-0.5" y="-20" width="160" relative="1" as="geometry">
            <mxPoint x="482" y="428" as="sourcePoint" />
            <mxPoint x="530" y="312" as="targetPoint" />
            <mxPoint as="offset" />
          </mxGeometry>
        </mxCell>
        <mxCell id="FMbTlA1_RN2vEP0Rp1aa-38" value="&amp;lt;&amp;lt;include&amp;gt;&amp;gt;" style="edgeStyle=none;html=1;endArrow=open;verticalAlign=bottom;dashed=1;labelBackgroundColor=none;rounded=0;entryX=0.78;entryY=0.815;entryDx=0;entryDy=0;exitX=0.5;exitY=0;exitDx=0;exitDy=0;entryPerimeter=0;" edge="1" parent="1" source="EYh4BBkZvYkQw-OT5A3f-47" target="EYh4BBkZvYkQw-OT5A3f-4">
          <mxGeometry x="-0.506" y="-6" width="160" relative="1" as="geometry">
            <mxPoint x="500" y="540" as="sourcePoint" />
            <mxPoint x="568" y="434" as="targetPoint" />
            <mxPoint as="offset" />
          </mxGeometry>
        </mxCell>
        <mxCell id="FMbTlA1_RN2vEP0Rp1aa-40" value="" style="endArrow=classic;html=1;rounded=0;exitX=0;exitY=0.5;exitDx=0;exitDy=0;entryX=0.648;entryY=0.055;entryDx=0;entryDy=0;entryPerimeter=0;" edge="1" parent="1" source="EYh4BBkZvYkQw-OT5A3f-47" target="EYh4BBkZvYkQw-OT5A3f-37">
          <mxGeometry width="50" height="50" relative="1" as="geometry">
            <mxPoint x="440" y="580" as="sourcePoint" />
            <mxPoint x="490" y="530" as="targetPoint" />
          </mxGeometry>
        </mxCell>
        <mxCell id="FMbTlA1_RN2vEP0Rp1aa-41" value="&amp;lt;&amp;lt;extend&amp;gt;&amp;gt;" style="edgeStyle=none;html=1;startArrow=open;endArrow=none;startSize=12;verticalAlign=bottom;dashed=1;labelBackgroundColor=none;rounded=0;exitX=0.984;exitY=0.715;exitDx=0;exitDy=0;exitPerimeter=0;entryX=0;entryY=0.5;entryDx=0;entryDy=0;" edge="1" parent="1" source="EYh4BBkZvYkQw-OT5A3f-37" target="EYh4BBkZvYkQw-OT5A3f-40">
          <mxGeometry x="0.2709" y="-21" width="160" relative="1" as="geometry">
            <mxPoint x="347" y="635.5" as="sourcePoint" />
            <mxPoint x="409" y="632.5" as="targetPoint" />
            <mxPoint as="offset" />
            <Array as="points" />
          </mxGeometry>
        </mxCell>
        <mxCell id="FMbTlA1_RN2vEP0Rp1aa-42" value="&amp;lt;&amp;lt;include&amp;gt;&amp;gt;" style="edgeStyle=none;html=1;endArrow=open;verticalAlign=bottom;dashed=1;labelBackgroundColor=none;rounded=0;entryX=0.32;entryY=1.055;entryDx=0;entryDy=0;exitX=1;exitY=0;exitDx=0;exitDy=0;entryPerimeter=0;" edge="1" parent="1" source="EYh4BBkZvYkQw-OT5A3f-4" target="EYh4BBkZvYkQw-OT5A3f-9">
          <mxGeometry x="-0.5" y="-20" width="160" relative="1" as="geometry">
            <mxPoint x="580" y="340" as="sourcePoint" />
            <mxPoint x="580" y="300" as="targetPoint" />
            <mxPoint as="offset" />
          </mxGeometry>
        </mxCell>
        <mxCell id="FMbTlA1_RN2vEP0Rp1aa-47" value="&amp;lt;&amp;lt;include&amp;gt;&amp;gt;" style="edgeStyle=none;html=1;endArrow=open;verticalAlign=bottom;dashed=1;labelBackgroundColor=none;rounded=0;entryX=0;entryY=1;entryDx=0;entryDy=0;exitX=0.5;exitY=0;exitDx=0;exitDy=0;" edge="1" parent="1" source="EYh4BBkZvYkQw-OT5A3f-37" target="EYh4BBkZvYkQw-OT5A3f-4">
          <mxGeometry x="-0.8231" y="10" width="160" relative="1" as="geometry">
            <mxPoint x="240" y="570" as="sourcePoint" />
            <mxPoint x="420" y="450" as="targetPoint" />
            <mxPoint as="offset" />
          </mxGeometry>
        </mxCell>
        <object placeholders="1" id="FMbTlA1_RN2vEP0Rp1aa-49">
          <mxCell style="rounded=1;fontSize=11;whiteSpace=wrap;html=1;arcSize=20;fillColor=none;strokeColor=#666666;fontColor=#333333;labelBackgroundColor=none;align=left;verticalAlign=bottom;labelBorderColor=none;spacingTop=0;spacing=10;metaEdit=1;rotatable=0;perimeter=rectanglePerimeter;noLabel=0;labelPadding=0;allowArrows=0;connectable=0;expand=0;recursiveResize=0;editable=1;pointerEvents=0;absoluteArcSize=1;points=[[0.25,0,0],[0.5,0,0],[0.75,0,0],[1,0.25,0],[1,0.5,0],[1,0.75,0],[0.75,1,0],[0.5,1,0],[0.25,1,0],[0,0.75,0],[0,0.5,0],[0,0.25,0]];strokeWidth=2;" vertex="1" parent="1">
            <mxGeometry x="150" y="150" width="570" height="520" as="geometry" />
          </mxCell>
        </object>
      </root>
    </mxGraphModel>
  </diagram>
</mxfile>
